inDegrees=no
num_controls=7
num_derivatives=13
num_iterations=219
num_multipliers=7
num_parameters=0
num_slacks=7
num_states=26
objective=5.693947
objective_accelerations=0.741996
objective_balance=0.045100
objective_effort=0.264723
objective_height=4.597221
objective_ligament=0.044906
solver_duration=2408.286668
status=Solve_Succeeded
success=true
DataType=double
version=3
OpenSimVersion=4.4-2022-07-23-0e9fedc
endheader
time	/jointset/ground_pelvis/pelvis_tilt/value	/jointset/ground_pelvis/pelvis_tx/value	/jointset/ground_pelvis/pelvis_ty/value	/jointset/hip_l/hip_flexion_l/value	/jointset/hip_l/hip_adduction_l/value	/jointset/hip_l/hip_rotation_l/value	/jointset/back/lumbar_extension/value	/jointset/patellofemoral_l/patellar_flexion_l/value	/jointset/knee_l/knee_flexion_l/value	/jointset/knee_l/knee_adduction_l/value	/jointset/knee_l/knee_rotation_l/value	/jointset/ankle_l/ankle_angle_l/value	/jointset/subtalar_l/subtalar_angle_l/value	/jointset/ground_pelvis/pelvis_tilt/speed	/jointset/ground_pelvis/pelvis_tx/speed	/jointset/ground_pelvis/pelvis_ty/speed	/jointset/hip_l/hip_flexion_l/speed	/jointset/hip_l/hip_adduction_l/speed	/jointset/hip_l/hip_rotation_l/speed	/jointset/back/lumbar_extension/speed	/jointset/patellofemoral_l/patellar_flexion_l/speed	/jointset/knee_l/knee_flexion_l/speed	/jointset/knee_l/knee_adduction_l/speed	/jointset/knee_l/knee_rotation_l/speed	/jointset/ankle_l/ankle_angle_l/speed	/jointset/subtalar_l/subtalar_angle_l/speed	/forceset/tau_hip_flexion_l	/forceset/tau_hip_adduction_l	/forceset/tau_hip_rotation_l	/forceset/tau_knee_flexion_l	/forceset/tau_ankle_angle_l	/forceset/tau_subtalar_angle_l	/forceset/tau_lumbar_extension	lambda_cid13_p0	lambda_cid13_p1	lambda_cid13_p2	lambda_cid13_p3	lambda_cid13_p4	lambda_cid13_p5	lambda_cid14_p0	/jointset/ground_pelvis/pelvis_tilt/accel	/jointset/ground_pelvis/pelvis_tx/accel	/jointset/ground_pelvis/pelvis_ty/accel	/jointset/hip_l/hip_flexion_l/accel	/jointset/hip_l/hip_adduction_l/accel	/jointset/hip_l/hip_rotation_l/accel	/jointset/back/lumbar_extension/accel	/jointset/patellofemoral_l/patellar_flexion_l/accel	/jointset/knee_l/knee_flexion_l/accel	/jointset/knee_l/knee_adduction_l/accel	/jointset/knee_l/knee_rotation_l/accel	/jointset/ankle_l/ankle_angle_l/accel	/jointset/subtalar_l/subtalar_angle_l/accel	gamma_cid13_p0	gamma_cid13_p1	gamma_cid13_p2	gamma_cid13_p3	gamma_cid13_p4	gamma_cid13_p5	gamma_cid14_p0
1	-0.4147438008566777	0.0044866532089879	0.5746774824225886	1.642646615089145	-0.4893803559110885	0.02259163809607251	-0.2617992696060089	1.52448577109969	1.52448577109969	-0.03305504547026564	-0.1745328139080233	0.4362543905683948	0.1080110189761047	-0.01670866211352337	0.008558364398727687	0.001041933942046359	-0.0001199882238923037	-0.00327790116799992	0.002847335834442165	-3.096281655087777e-06	-0.0005650586400374029	-0.0005650586400373522	-0.006217957365615038	1.058636994402687e-06	0.01549891664895462	0.007505300384866345	-0.2657912511872377	0.04966977947640767	0.001067537815691855	-0.3576437637057154	-0.07553155662280357	0.01790934540145758	0.241900203585044	-64.03475073192971	4.840416223202574	-2.714086565199653	16.61385410530321	-641.8607475128988	-55.57104319028968	-0.02971015729183541	1.106706513474048	-0.012838276302803	1.989683001644921	-6.096841180989773	0.1616134659787653	-2.364983758595214	-0.01559785012662173	-5.761003578782692	-5.761003578782691	-0.7959261367662759	-0.03534650693764796	-1.546946127099236	-0.9871409595907538	2.470793578148404e-09	1.978341703386103e-08	-1.343619402659892e-08	4.018138014385654e-09	-8.634909616436799e-10	3.6039903400388e-08	3.795473703171453e-10
1.01	-0.4148562654518883	0.004571583322306914	0.5747872372220961	1.642341641601899	-0.4894042199261263	0.02250131306971754	-0.261799283597233	1.524192343532343	1.524192343532344	-0.0331550094859933	-0.1745328051737524	0.4363322842999456	0.1080383447684972	-0.005783620057319888	0.008430923894024386	0.02090495607463126	-0.06086674980457357	-0.001493070517115531	-0.02090790043898741	3.014092530230857e-07	-0.05811559187006952	-0.05811559187006977	-0.01377417331916315	5.205298296583432e-07	7.740644980576693e-05	-0.002038933362904062	-0.2656951320590683	0.04968905789176816	0.001063770218603883	-0.3574771573056555	-0.0755366850238619	0.01793793673866096	0.2418271712917451	-64.02031188780417	4.816445169580915	-2.699955466263198	16.51144671453172	-641.6926200705954	-55.58633082174016	-0.02971541186427844	1.085497429619876	-0.0122070386561112	1.983999367581772	-6.062401062208458	0.1871914528471707	-2.380133960102743	0.008309084728613947	-5.75134649501523	-5.751346495015277	-0.735373770249675	0.01757376995832903	-1.540117982225716	-0.9378856271971786	-6.668626950249824e-09	-2.153984092929694e-09	2.330690135285398e-08	3.10187393027411e-10	-9.753992874042298e-09	5.860938808375622e-08	-1.116440793308623e-08
1.02	-0.4148594607509531	0.004655337010358454	0.5750954997526327	1.641429439015723	-0.4894101809170155	0.02217356760095145	-0.2617992635103639	1.523323556972716	1.523323556972716	-0.033330516550365	-0.1745328055740453	0.4362558900263067	0.1079702640144464	0.005145197115941914	0.008323079345233188	0.04074348014787395	-0.1215658080092999	0.0003027036619261413	-0.04463675264785451	3.719341325711104e-06	-0.1156368570961726	-0.1156368570961731	-0.02132656709673694	-7.682747663928813e-07	-0.01535868438546394	-0.01157600890375455	-0.265599012930911	0.04970833630712332	0.001060002621586283	-0.3573105509055938	-0.07554181342492049	0.01796652807585308	0.2417541389984342	-64.01364449417807	4.793925123481296	-2.686158699075273	16.44725735945101	-641.6441781965217	-55.58454604168364	-0.02971989442469129	1.10746153688571	-0.008919085120378941	1.984783389776477	-6.087300505798792	0.1638021716102098	-2.359706945682727	-0.01559380189376288	-5.755149977996874	-5.755149977996868	-0.7951617015714165	-0.03549664642393538	-1.549862254323406	-0.9857093182067873	-1.559463585830668e-08	-2.293936797511967e-08	6.137842778306832e-08	-3.05051936411883e-09	-1.869247909149973e-08	8.275321028801902e-08	-2.276164330055842e-08
1.03	-0.4147533294412261	0.004738124544568496	0.5756019456774166	1.639910667388841	-0.4893980781949092	0.02160867850873569	-0.2617992189657313	1.521879783971247	1.521879783971251	-0.03358140125362768	-0.174532812185779	0.4360249791466433	0.1078069000108178	0.01608339922159484	0.008239103513022549	0.0605337338059446	-0.1821622592682204	0.002124612461265082	-0.06832835292715457	4.460200131380958e-06	-0.1731048712049581	-0.1731048712049588	-0.02884441956900361	9.966820893374961e-07	-0.03083423210653373	-0.0210909925994933	-0.2652694970868407	0.04972111736246827	0.001032301014697433	-0.356876666372137	-0.07546302056076051	0.01806060245423697	0.2415079107466193	-63.95263589166537	4.716703958210219	-2.644511995121066	16.32768825456495	-641.2509093553184	-55.63772222075947	-0.02973733457391279	1.087346993385837	-0.007436731719166713	1.974345122907537	-6.041881878367221	0.1923903998629752	-2.372001460910226	0.00779862140935553	-5.740689386224695	-5.740689386224721	-0.7292217776437361	0.01826751045276329	-1.548016657998867	-0.9335276008893681	-2.451846709676821e-08	-4.371299657930351e-08	9.946350963216799e-08	-6.407682816528212e-09	-2.763145494472308e-08	1.069130971608624e-07	-3.435942234215376e-08
